<?xml version="1.0" standalone="no"?>
<!DOCTYPE svg PUBLIC "-//W3C//DTD SVG 20010904//EN"
 "http://www.w3.org/TR/2001/REC-SVG-20010904/DTD/svg10.dtd">
<svg version="1.0" xmlns="http://www.w3.org/2000/svg"
 width="1280.000000pt" height="950.000000pt" viewBox="0 0 1280.000000 950.000000"
 preserveAspectRatio="xMidYMid meet">
<metadata>
Created by potrace 1.15, written by Peter Selinger 2001-2017
</metadata>
<g transform="translate(0.000000,950.000000) scale(0.100000,-0.100000)"
fill="#000000" stroke="none">
<path d="M850 9299 c-45 -6 -101 -22 -139 -39 -35 -17 -77 -30 -93 -30 -17 0
-46 -8 -66 -17 -47 -22 -119 -94 -127 -126 -5 -19 -15 -26 -44 -31 -63 -10
-86 -35 -100 -113 -7 -37 -26 -108 -42 -157 -26 -80 -29 -101 -29 -220 0 -140
18 -303 45 -406 9 -35 50 -132 91 -216 83 -168 132 -228 232 -278 75 -38 78
-37 85 42 6 70 23 122 40 122 37 0 127 -94 127 -132 0 -19 -359 -381 -419
-422 -62 -43 -119 -112 -155 -186 -26 -55 -32 -79 -34 -156 -8 -213 73 -366
290 -546 l105 -87 21 -73 c11 -40 25 -99 31 -131 14 -77 47 -122 189 -258 171
-163 226 -232 242 -298 21 -91 53 -110 217 -130 102 -13 190 0 256 37 105 60
238 163 341 264 l109 107 73 -45 c160 -100 326 -151 521 -161 l122 -6 -19 -25
c-11 -14 -20 -32 -20 -41 0 -17 121 -141 138 -141 5 0 26 7 45 15 20 8 51 15
69 15 32 0 33 -1 34 -43 0 -23 6 -53 13 -66 18 -32 90 -61 171 -68 l69 -6 6
-41 c4 -23 15 -56 26 -74 13 -24 17 -44 13 -75 -3 -24 1 -62 10 -90 13 -43 13
-52 0 -84 -18 -42 -14 -69 31 -183 19 -47 48 -140 64 -207 36 -140 89 -317
166 -553 60 -183 75 -253 75 -347 0 -58 -3 -66 -35 -102 -19 -21 -42 -55 -51
-76 -21 -51 -30 -192 -15 -238 7 -20 50 -91 96 -156 73 -103 83 -124 80 -153
-26 -196 -40 -279 -61 -368 -29 -121 -127 -696 -144 -845 -14 -126 -2 -217 33
-253 27 -27 207 -78 368 -106 51 -9 95 -18 97 -21 3 -3 1 -68 -5 -146 l-10
-140 -39 -40 -38 -39 -34 33 -34 32 -33 -39 c-27 -33 -34 -49 -37 -99 -4 -48
-9 -64 -27 -76 -12 -9 -47 -36 -79 -59 -72 -55 -101 -70 -242 -122 -63 -24
-140 -55 -170 -71 -100 -49 -173 -155 -156 -224 5 -19 19 -32 49 -45 38 -17
74 -19 348 -21 l307 -2 33 25 c61 45 73 48 221 48 145 1 508 16 513 22 4 4 29
423 28 485 0 49 -2 55 -45 95 l-46 43 -13 105 c-18 138 -18 256 0 298 11 27
30 41 95 74 139 70 177 80 306 79 63 -1 138 3 166 9 l51 11 -19 107 c-61 346
-134 656 -193 817 -34 95 -37 111 -50 315 -22 319 -31 385 -90 620 -113 452
-125 569 -128 1206 l-2 351 47 94 c91 184 277 462 338 508 32 23 32 24 29 99
-4 69 -2 76 16 81 11 4 66 43 122 88 111 89 205 147 304 190 35 15 82 41 104
58 59 47 88 61 220 106 137 46 277 112 415 194 113 68 218 121 320 164 86 36
214 128 434 315 82 70 181 149 222 176 65 44 299 180 310 180 10 0 2 -172 -11
-265 -19 -125 -30 -375 -21 -439 5 -33 17 -57 37 -78 16 -17 29 -41 29 -53 0
-13 8 -26 18 -31 9 -4 82 -9 162 -11 121 -4 160 -1 237 16 l91 21 44 -24 c23
-14 70 -29 102 -35 65 -12 384 -13 562 -3 l111 7 6 -160 c3 -88 13 -194 21
-236 24 -122 29 -269 17 -476 -9 -143 -16 -200 -29 -225 -12 -24 -18 -68 -22
-163 -7 -174 -44 -305 -107 -383 -40 -49 -47 -65 -55 -117 -2 -11 -16 -26 -31
-33 -16 -8 -31 -20 -34 -28 -3 -8 -40 -43 -83 -78 -45 -37 -117 -114 -170
-180 -60 -76 -99 -116 -111 -116 -45 0 -221 -118 -284 -190 -11 -12 -65 -57
-120 -98 -171 -130 -335 -263 -335 -271 0 -9 -204 -153 -258 -182 -38 -21 -72
-93 -113 -240 -17 -63 -42 -140 -55 -171 -20 -47 -24 -75 -24 -152 0 -84 -3
-101 -30 -158 -25 -51 -30 -76 -30 -134 0 -44 -22 -192 -59 -390 -33 -175 -71
-386 -86 -469 -33 -183 -90 -411 -144 -567 l-39 -117 86 -20 c48 -11 106 -23
130 -27 46 -7 47 -8 32 -50 -7 -19 -29 -40 -61 -59 -72 -42 -163 -145 -206
-232 -40 -80 -43 -117 -18 -181 l16 -39 212 -8 c319 -12 374 -10 432 12 75 29
193 101 207 126 9 16 12 92 13 267 l0 245 48 133 c26 74 47 147 47 164 0 17
-7 78 -16 136 l-15 106 42 90 c38 78 44 101 50 185 8 108 17 151 31 151 21 0
145 131 229 243 99 131 116 161 149 262 13 38 33 93 46 120 21 50 24 51 106
83 46 17 106 46 133 64 63 42 158 138 203 205 19 29 42 53 51 52 9 0 63 -4
121 -9 99 -8 112 -11 222 -64 64 -31 127 -56 140 -56 27 0 75 37 189 147 90
86 105 89 199 41 62 -32 66 -33 208 -35 l144 -2 57 -78 c72 -97 136 -157 243
-227 139 -90 281 -153 417 -185 74 -18 76 -19 83 -54 28 -134 195 -317 443
-484 33 -23 89 -74 125 -114 36 -41 143 -153 238 -251 l173 -176 -12 -125
c-12 -120 -11 -126 9 -158 17 -28 20 -50 20 -124 0 -96 9 -131 48 -182 29 -38
98 -56 178 -47 l53 6 7 -38 c35 -193 240 -336 482 -336 79 0 155 26 173 60 19
35 -7 147 -44 192 -7 8 -20 39 -29 69 -10 30 -40 100 -68 155 -47 95 -60 111
-208 261 l-158 160 -35 145 c-55 222 -109 655 -95 753 12 79 3 167 -21 221
-11 26 -73 99 -163 192 -113 117 -177 195 -298 364 -339 474 -362 502 -474
590 -128 98 -201 141 -289 170 -70 23 -67 20 -82 92 -1 9 1 52 6 94 7 60 5 82
-6 105 -15 28 -21 89 -8 89 3 0 35 -16 70 -35 35 -19 74 -35 87 -35 53 0 108
73 151 201 14 41 38 87 54 104 103 108 149 362 137 757 -4 129 -2 209 4 213
14 9 47 122 54 190 8 69 -3 180 -35 349 -22 117 -23 120 -73 177 -28 32 -103
118 -167 191 -132 151 -210 226 -344 333 -94 75 -105 89 -105 130 0 20 6 25
38 30 124 21 211 66 262 136 38 53 70 155 70 224 0 44 10 72 60 174 71 145 72
150 29 351 -17 80 -33 171 -36 202 -5 52 -8 57 -33 63 -16 3 -57 26 -92 51
-68 48 -139 74 -200 74 -29 0 -43 6 -61 27 -30 36 -67 71 -99 94 l-26 19 -12
-50 c-14 -58 -2 -57 -134 -9 -44 16 -88 29 -97 29 -44 0 -203 -105 -282 -186
-41 -43 -77 -126 -77 -179 0 -22 -20 -74 -52 -140 l-52 -105 26 -54 c26 -53
27 -57 12 -92 -9 -21 -15 -62 -14 -98 1 -33 -1 -104 -5 -156 -7 -91 -6 -98 24
-169 17 -41 31 -75 31 -76 0 -1 -51 0 -112 2 -62 3 -162 0 -221 -6 -106 -11
-108 -10 -145 13 -67 44 -158 69 -257 70 -81 1 -98 -2 -165 -31 -41 -18 -120
-58 -175 -88 l-99 -55 -102 10 c-112 10 -289 -1 -407 -26 -38 -8 -74 -14 -81
-14 -7 0 -25 33 -41 73 -15 39 -45 107 -66 149 -36 72 -39 85 -45 193 -4 63
-4 115 0 115 4 0 94 14 199 31 287 46 313 64 311 224 -2 83 -6 101 -52 220
-37 93 -47 132 -39 137 7 4 125 8 263 8 222 0 257 2 307 19 184 64 347 181
347 250 0 50 -28 88 -100 136 -195 130 -479 174 -738 114 -46 -10 -92 -24
-103 -30 -26 -14 -319 -50 -347 -42 l-22 5 20 25 c26 34 25 75 -2 100 -45 40
-49 39 -100 -18 l-49 -54 8 50 c4 28 8 68 8 90 0 34 -3 40 -23 43 -12 2 -36
-4 -54 -12 -17 -9 -49 -16 -70 -16 -37 0 -40 -2 -63 -53 -20 -43 -44 -176 -45
-244 0 -6 -25 -19 -56 -28 -82 -24 -164 -62 -206 -95 -23 -19 -149 -73 -346
-149 -171 -66 -319 -124 -330 -130 -10 -5 -32 -35 -48 -66 -28 -54 -30 -55
-72 -55 -59 0 -75 -11 -111 -74 -49 -86 -48 -85 -152 -36 -90 43 -91 43 -172
37 -141 -11 -374 -86 -436 -140 -46 -39 -108 -67 -152 -67 -20 0 -62 9 -95 21
-52 18 -73 20 -174 14 -144 -8 -317 -31 -371 -50 -55 -20 -88 -19 -185 5 -76
18 -100 18 -350 10 -148 -5 -286 -14 -307 -20 -21 -6 -52 -27 -69 -46 -17 -18
-39 -34 -49 -34 -10 0 -23 -8 -28 -19 -6 -10 -34 -28 -63 -41 -45 -19 -63 -22
-128 -16 -101 8 -145 22 -174 53 -20 21 -28 24 -39 14 -12 -10 -22 1 -57 66
-55 99 -162 209 -246 251 -51 26 -62 36 -66 60 l-4 29 95 7 c134 8 307 7 366
-4 28 -5 120 -16 205 -25 85 -8 200 -20 255 -26 116 -13 271 -5 347 18 29 8
97 35 152 60 55 24 127 51 160 58 120 28 333 65 457 81 l127 16 73 -27 c99
-35 254 -75 294 -75 18 0 63 14 99 31 58 27 74 30 119 25 65 -8 104 14 147 81
57 89 31 150 -100 238 -54 36 -57 37 -130 32 -41 -3 -145 -13 -231 -23 -169
-20 -123 -21 -694 20 -586 43 -888 44 -1012 4 -58 -19 -89 -22 -208 -22 -208
2 -286 16 -460 84 -162 62 -221 81 -336 105 -85 18 -267 21 -319 5 -19 -6 -78
-17 -131 -25 -125 -18 -199 -47 -262 -101 -75 -64 -110 -78 -197 -78 -64 0
-80 3 -107 23 -48 36 -47 47 1 71 24 11 51 29 60 39 22 24 17 35 -75 157 l-68
90 11 73 c10 68 13 74 44 89 35 16 41 26 23 37 -5 4 -21 32 -35 62 -19 44 -54
85 -157 188 -110 109 -145 138 -212 172 -150 77 -287 102 -445 82z"/>
</g>
</svg>
